<svg width="25" height="25" viewBox="0 0 25 25" fill="none" xmlns="http://www.w3.org/2000/svg">
<path d="M12.1278 4.65035L5.91863 1.57519L6.10643 8.44829L11.969 11.3518L12.1278 4.65035Z" fill="#F2F2F2"/>
<path d="M19.0212 8.53198L18.9423 1.60347L12.9036 4.8911L12.9781 11.4329L19.0212 8.53198Z" fill="#F2F2F2"/>
<path d="M19.0177 15.9429L25 12.5211L19.0146 9.37311L13.0319 12.5157L19.0177 15.9429Z" fill="#F2F2F2"/>
<path d="M11.9681 12.5211L5.98583 15.9429L0 12.5157L5.98272 9.37311L11.9681 12.5211Z" fill="#F2F2F2"/>
<path d="M19.1113 23.3623L12.9021 20.2871L13.0609 13.5856L18.9235 16.4891L19.1113 23.3623Z" fill="#F2F2F2"/>
<path d="M6.05413 16.4963L6.13306 23.4248L12.1718 20.1371L12.0973 13.5954L6.05413 16.4963Z" fill="#F2F2F2"/>
</svg>
