<svg width="25" height="25" viewBox="0 0 25 25" fill="none" xmlns="http://www.w3.org/2000/svg">
<path fill-rule="evenodd" clip-rule="evenodd" d="M19.3027 11.9736C19.3013 11.9716 19.3007 11.9692 19.3011 11.9668L20.8928 2.6859C20.8935 2.68162 20.8972 2.6785 20.9015 2.6785H21.4053C21.4092 2.6785 21.4126 2.68102 21.4137 2.68472L24.9996 14.0383C25.0007 14.0419 24.9995 14.0457 24.9966 14.048L22.3527 16.1123C22.3487 16.1153 22.343 16.1146 22.3401 16.1105L19.3027 11.9736ZM0 18.1261C0 18.13 0.00247515 18.1334 0.00613433 18.1346L5.45624 19.9166C5.45887 19.9175 5.46179 19.917 5.46408 19.9155L17.6463 11.5052C17.6484 11.5037 17.6498 11.5016 17.6501 11.4991L18.9565 2.73348C18.9573 2.72811 18.9531 2.72327 18.9477 2.72327H8.15724C8.15456 2.72327 8.15208 2.72445 8.15037 2.72649L0.00204781 12.5562C0.000724087 12.5578 0 12.5598 0 12.5619V18.1261ZM7.72732 20.3706L13.6815 22.3211C13.6841 22.3219 13.6871 22.3215 13.6894 22.3198L20.7782 17.235C20.7821 17.2322 20.7831 17.2268 20.7804 17.2228L18.123 13.2684C18.1203 13.2642 18.1147 13.2631 18.1106 13.266L7.72732 20.3706Z" fill="#F2F2F2"/>
</svg>
