<svg width="20" height="20" viewBox="0 0 20 20" fill="none" xmlns="http://www.w3.org/2000/svg">
<path fill-rule="evenodd" clip-rule="evenodd" d="M12.1878 13.6231C11.1298 14.3905 9.82856 14.8431 8.4215 14.8431C4.87499 14.8431 2 11.9681 2 8.42157C2 4.87505 4.87499 2.00006 8.4215 2.00006C11.968 2.00006 14.843 4.87505 14.843 8.42157C14.843 9.82836 14.3907 11.1296 13.6233 12.1876C13.7242 12.2377 13.8185 12.3049 13.9026 12.389L17.6866 16.173C18.1045 16.5908 18.1045 17.2686 17.6866 17.6864C17.2686 18.1045 16.5911 18.1045 16.173 17.6864L12.3892 13.9027C12.3051 13.8185 12.2379 13.724 12.1878 13.6231ZM12.7025 8.42157C12.7025 10.786 10.7859 12.7026 8.4215 12.7026C6.05708 12.7026 4.1405 10.786 4.1405 8.42157C4.1405 6.05714 6.05708 4.14056 8.4215 4.14056C10.7859 4.14056 12.7025 6.05714 12.7025 8.42157Z" fill="#747476"/>
</svg>
