<svg width="25" height="25" viewBox="0 0 25 25" fill="none" xmlns="http://www.w3.org/2000/svg">
<path fill-rule="evenodd" clip-rule="evenodd" d="M0.00249564 12.5152C-0.000830304 12.5096 -0.000831974 12.5025 0.0024912 12.4968L6.28883 1.7563C6.2921 1.75073 6.29811 1.7473 6.30455 1.7473H18.7644C18.7709 1.7473 18.7769 1.75076 18.7802 1.75638L24.9975 12.4969C25.0008 12.5025 25.0008 12.5095 24.9975 12.5151L18.7802 23.2436C18.7769 23.2492 18.7709 23.2527 18.7644 23.2527H6.30455C6.29811 23.2527 6.2921 23.2493 6.28883 23.2437L0.00249564 12.5152ZM18.2919 12.5C18.2919 15.6977 15.6996 18.2899 12.502 18.2899C9.30431 18.2899 6.71207 15.6977 6.71207 12.5C6.71207 9.30229 9.30431 6.7101 12.502 6.7101C15.6996 6.7101 18.2919 9.30229 18.2919 12.5Z" fill="#F2F2F2"/>
</svg>
